<svg xmlns="http://www.w3.org/2000/svg" width="20" height="20" fill="none" viewBox="0 0 20 20">
    <path fill="#091870" d="M0 10C0 4.477 4.477 0 10 0s10 4.477 10 10-4.477 10-10 10S0 15.523 0 10z"/>
    <path fill="#fff" d="M15.476 7.338l-.968.002c-.725-1.721-2.148-2.965-3.946-3.264-2.004-.332-3.921.653-5.065 2.387-.507.77.686 1.49 1.19.727 1.568-2.377 4.916-2.163 6.292.154l-.894.003c-.083 0-.142.039-.18.094-.059.068-.082.168-.019.27l1.702 2.797c.096.157.301.155.396-.001L15.672 7.7c.094-.154-.03-.364-.196-.363zM13.049 12.006c-1.556 2.359-4.865 2.166-6.26-.1l.856-.003c.083 0 .142-.04.179-.095.06-.067.082-.167.02-.27L6.142 8.742c-.095-.157-.301-.156-.396.001l-1.689 2.805c-.093.155.03.364.197.364l.997-.003c.733 1.694 2.144 2.915 3.923 3.21 2.003.332 3.92-.653 5.064-2.386.508-.77-.686-1.49-1.19-.727z"/>
</svg>
